<?xml version="1.0" encoding="utf-8"?>
<!-- Generator: Adobe Illustrator 25.4.1, SVG Export Plug-In . SVG Version: 6.00 Build 0)  -->
<svg version="1.1" id="Capa_1" xmlns="http://www.w3.org/2000/svg" xmlns:xlink="http://www.w3.org/1999/xlink" x="0px" y="0px"
	 viewBox="0 0 700 700" style="enable-background:new 0 0 700 700;" xml:space="preserve">
<style type="text/css">
	.st0{fill:#131218;}
</style>
<g>
	<path class="st0" d="M676,310.6L450.7,85.3c-10.2-10.8-24.4-17-39.3-17.2s-29.2,5.6-39.7,16.1s-16.4,24.8-16.2,39.7
		c0.2,14.9,6.4,29,17.1,39.3l133.2,133H63c-19.7,0-37.9,10.5-47.8,27.6s-9.9,38.1,0,55.2c9.8,17,28,27.5,47.8,27.5h441.7l-132,132.2
		c-13.4,14-18.4,34.1-13.2,52.7c5.2,18.7,19.8,33.3,38.5,38.4c18.7,5.2,38.7,0.1,52.7-13.2L676,391.4c10.4-10.3,16.2-24.4,16.2-39
		c0-0.5,0-0.9,0-1.4s0-0.9,0-1.4C692.2,335,686.4,321,676,310.6L676,310.6z"/>
</g>
</svg>
