<?xml version="1.0" encoding="utf-8"?>
<!-- Generator: Adobe Illustrator 25.4.1, SVG Export Plug-In . SVG Version: 6.00 Build 0)  -->
<svg version="1.1" id="Capa_1" xmlns="http://www.w3.org/2000/svg" xmlns:xlink="http://www.w3.org/1999/xlink" x="0px" y="0px"
	 viewBox="0 0 233.3 45.5" style="enable-background:new 0 0 233.3 45.5;" xml:space="preserve">
<style type="text/css">
	.st0{fill:#25EBCD;}
	.st1{fill:#F8F9FF;}
</style>
<g>
	<path class="st0" d="M6.6,18.2c0.2-3,0.9-6.6,2.9-8.9C11,7.7,13,6.8,15.8,6.8c0.5,0.1,2.8,0.4,5.1,1.6c3.2,1.7,4.7,4.2,4.7,7.8h5.8
		c0-5.8-2.7-10.3-7.8-13c-3.6-1.9-7-2.2-7.4-2.2l-0.2,0C11.3,1,7.7,2.5,5.1,5.6C-0.3,11.7,1,21.9,1,23.8v5.5v15.3h29.8v-23
		l-14.9-8.7L6.6,18.2z M25,38.7h-5v-9h-7.9v9H6.8v-9.4v-4.4l9.1-5.3l9.1,5.3V38.7z"/>
	<g>
		<path class="st1" d="M38.5,16.4h9.9c4.7,0,8.1,3,8.1,7.3c0,4.3-3.4,7.3-8.1,7.3h-4.6v6.7h-5.3V16.4z M47.9,26.2
			c1.8,0,3.1-1,3.1-2.5s-1.3-2.5-3.1-2.5h-4.1v5H47.9z"/>
		<path class="st1" d="M73,34.6h-8.5l-1.2,3.1h-6l8.5-21.4h6l8.5,21.4h-6L73,34.6z M71.4,30.5l-2.6-6.6l-2.6,6.6H71.4z"/>
		<path class="st1" d="M81,34.6l3-3.6c2.1,1.7,4.4,2.7,7,2.7c2,0,3-0.8,3-2c0-1.3-1-1.6-4.1-2.3c-4.6-1-8-2.3-8-6.6
			c0-4.1,3.3-6.8,8.2-6.8c3.6,0,6.4,1,8.6,2.9l-2.7,3.8c-2-1.5-4.1-2.3-6.1-2.3c-1.7,0-2.7,0.8-2.7,1.9c0,1.3,1,1.7,4.2,2.4
			c4.8,1,7.9,2.4,7.9,6.4c0,4.3-3.3,7-8.5,7C87,38.1,83.6,36.9,81,34.6z"/>
		<path class="st1" d="M100.8,34.6l3-3.6c2.1,1.7,4.4,2.7,7,2.7c2,0,3-0.8,3-2c0-1.3-1-1.6-4.1-2.3c-4.6-1-8-2.3-8-6.6
			c0-4.1,3.3-6.8,8.2-6.8c3.6,0,6.4,1,8.6,2.9l-2.7,3.8c-2-1.5-4.1-2.3-6.1-2.3c-1.7,0-2.7,0.8-2.7,1.9c0,1.3,1,1.7,4.2,2.4
			c4.8,1,7.9,2.4,7.9,6.4c0,4.3-3.3,7-8.5,7C106.9,38.1,103.4,36.9,100.8,34.6z"/>
		<path class="st1" d="M127.6,21.2h-6.5v-4.8h18.3v4.8h-6.5v16.6h-5.3V21.2z"/>
		<path class="st1" d="M154.8,37.8l-4.7-6.7h-2.6v6.7h-5.3V16.4h9.9c4.7,0,8.1,3,8.1,7.3c0,3.1-1.8,5.6-4.5,6.7l5.2,7.3H154.8z
			 M147.5,26.2h4.1c1.8,0,3.1-1,3.1-2.5s-1.3-2.5-3.1-2.5h-4.1V26.2z"/>
		<path class="st1" d="M162.7,27.1c0-6,5.3-11,11.5-11c6.2,0,11.5,5,11.5,11c0,6-5.3,11.1-11.5,11.1C168,38.1,162.7,33.1,162.7,27.1
			z M180.3,27.1c0-3.4-2.8-6.2-6-6.2s-6,2.9-6,6.2c0,3.4,2.8,6.2,6,6.2S180.3,30.5,180.3,27.1z"/>
		<path class="st1" d="M188.9,16.4h5.3l9.3,12.6V16.4h5.3v21.4h-5.3l-9.3-12.6v12.6h-5.3V16.4z"/>
		<path class="st1" d="M222.7,25.5h9.7v8.9c-2.2,2.3-5.4,3.7-8.7,3.7c-6.3,0-11.6-5.1-11.6-11.1c0-6,5.3-11,11.6-11
			c3.3,0,6.6,1.4,8.7,3.7l-3.9,3.5c-1.2-1.4-3-2.3-4.9-2.3c-3.3,0-6.2,2.9-6.2,6.2c0,3.4,2.8,6.2,6.2,6.2c1.2,0,2.5-0.4,3.6-1.1
			v-2.7h-4.6V25.5z"/>
	</g>
</g>
</svg>
